<svg width="52" height="68" viewBox="0 0 52 68" fill="none" xmlns="http://www.w3.org/2000/svg">
    <path d="M3 22.1177H49L26 68L3 22.1177Z" fill="#1E98FF" />
    <ellipse cx="26" cy="25.9412" rx="23" ry="22.9412" fill="white" stroke="#1E98FF" stroke-width="5.82353" />
    <path d="M25.5938 20.0205L18.6394 18.174C18.3561 18.0976 18.0686 18.2655 17.9931 18.5437C17.9177 18.8225 18.0849 19.1095 18.3661 19.1843L25.3205 21.0308C25.3664 21.0428 25.4123 21.0485 25.4571 21.0485C25.6903 21.0485 25.9035 20.8943 25.9662 20.661C26.0428 20.3818 25.8755 20.0947 25.5938 20.0205Z" fill="#00C533" />
    <path d="M25.5938 20.0205L18.6394 18.174C18.3561 18.0976 18.0686 18.2655 17.9931 18.5437C17.9177 18.8225 18.0849 19.1095 18.3661 19.1843L25.3205 21.0308C25.3664 21.0428 25.4123 21.0485 25.4571 21.0485C25.6903 21.0485 25.9035 20.8943 25.9662 20.661C26.0428 20.3818 25.8755 20.0947 25.5938 20.0205Z" fill="#1E98FF" />
    <path d="M25.5938 20.0205L18.6394 18.174C18.3561 18.0976 18.0686 18.2655 17.9931 18.5437C17.9177 18.8225 18.0849 19.1095 18.3661 19.1843L25.3205 21.0308C25.3664 21.0428 25.4123 21.0485 25.4571 21.0485C25.6903 21.0485 25.9035 20.8943 25.9662 20.661C26.0428 20.3818 25.8755 20.0947 25.5938 20.0205Z" stroke="#1E98FF" stroke-width="1.74706" />
    <path d="M27.1493 20.79C27.1688 20.7625 27.1852 20.7325 27.21 20.7092C27.1857 20.733 27.1694 20.7625 27.1493 20.79Z" fill="#00C533" />
    <path d="M27.1493 20.79C27.1688 20.7625 27.1852 20.7325 27.21 20.7092C27.1857 20.733 27.1694 20.7625 27.1493 20.79Z" fill="#1E98FF" />
    <path d="M27.1493 20.79C27.1688 20.7625 27.1852 20.7325 27.21 20.7092C27.1857 20.733 27.1694 20.7625 27.1493 20.79Z" stroke="#1E98FF" stroke-width="1.74706" />
    <path d="M27.094 20.8715C27.0818 20.8984 27.0786 20.9284 27.0712 20.958C27.0786 20.929 27.0818 20.8989 27.094 20.8715Z" fill="#00C533" />
    <path d="M27.094 20.8715C27.0818 20.8984 27.0786 20.9284 27.0712 20.958C27.0786 20.929 27.0818 20.8989 27.094 20.8715Z" fill="#1E98FF" />
    <path d="M27.094 20.8715C27.0818 20.8984 27.0786 20.9284 27.0712 20.958C27.0786 20.929 27.0818 20.8989 27.094 20.8715Z" stroke="#1E98FF" stroke-width="1.74706" />
    <path d="M27.385 20.6012C27.347 20.6154 27.3159 20.6392 27.2832 20.6614C27.3159 20.6397 27.347 20.6159 27.385 20.6012Z" fill="#00C533" />
    <path d="M27.385 20.6012C27.347 20.6154 27.3159 20.6392 27.2832 20.6614C27.3159 20.6397 27.347 20.6159 27.385 20.6012Z" fill="#1E98FF" />
    <path d="M27.385 20.6012C27.347 20.6154 27.3159 20.6392 27.2832 20.6614C27.3159 20.6397 27.347 20.6159 27.385 20.6012Z" stroke="#1E98FF" stroke-width="1.74706" />
    <path d="M27.0734 36.1005C26.9795 35.827 27.1267 35.53 27.4026 35.4369L28.1006 35.2011V21.4587L27.7461 21.5805C27.4697 21.6757 27.17 21.5309 27.075 21.2579C27.0534 21.1957 27.047 21.1324 27.0491 21.0702C27.0491 21.0759 27.046 21.0812 27.046 21.0869V35.2592L16.0473 32.477V23.574L15.7898 23.6577L14.9921 23.8635V32.8829C14.9921 33.1219 15.1557 33.33 15.3894 33.3897L27.4433 36.4385C27.4866 36.4495 27.5303 36.4547 27.5736 36.4547C27.353 36.4551 27.1478 36.318 27.0734 36.1005Z" fill="#00C533" />
    <path d="M27.0734 36.1005C26.9795 35.827 27.1267 35.53 27.4026 35.4369L28.1006 35.2011V21.4587L27.7461 21.5805C27.4697 21.6757 27.17 21.5309 27.075 21.2579C27.0534 21.1957 27.047 21.1324 27.0491 21.0702C27.0491 21.0759 27.046 21.0812 27.046 21.0869V35.2592L16.0473 32.477V23.574L15.7898 23.6577L14.9921 23.8635V32.8829C14.9921 33.1219 15.1557 33.33 15.3894 33.3897L27.4433 36.4385C27.4866 36.4495 27.5303 36.4547 27.5736 36.4547C27.353 36.4551 27.1478 36.318 27.0734 36.1005Z" fill="#1E98FF" />
    <path d="M27.0734 36.1005C26.9795 35.827 27.1267 35.53 27.4026 35.4369L28.1006 35.2011V21.4587L27.7461 21.5805C27.4697 21.6757 27.17 21.5309 27.075 21.2579C27.0534 21.1957 27.047 21.1324 27.0491 21.0702C27.0491 21.0759 27.046 21.0812 27.046 21.0869V35.2592L16.0473 32.477V23.574L15.7898 23.6577L14.9921 23.8635V32.8829C14.9921 33.1219 15.1557 33.33 15.3894 33.3897L27.4433 36.4385C27.4866 36.4495 27.5303 36.4547 27.5736 36.4547C27.353 36.4551 27.1478 36.318 27.0734 36.1005Z" stroke="#1E98FF" stroke-width="1.74706" />
    <path d="M27.5724 36.4552C27.6309 36.4552 27.6884 36.4458 27.7433 36.4268H27.7428C27.6863 36.4463 27.6288 36.4552 27.5724 36.4552Z" fill="#00C533" />
    <path d="M27.5724 36.4552C27.6309 36.4552 27.6884 36.4458 27.7433 36.4268H27.7428C27.6863 36.4463 27.6288 36.4552 27.5724 36.4552Z" fill="#1E98FF" />
    <path d="M27.5724 36.4552C27.6309 36.4552 27.6884 36.4458 27.7433 36.4268H27.7428C27.6863 36.4463 27.6288 36.4552 27.5724 36.4552Z" stroke="#1E98FF" stroke-width="1.74706" />
    <path d="M15.2228 17.4653C15.2587 17.4405 15.2945 17.4152 15.3358 17.3999C15.2935 17.4152 15.2587 17.44 15.2228 17.4653Z" fill="#00C533" />
    <path d="M15.2228 17.4653C15.2587 17.4405 15.2945 17.4152 15.3358 17.3999C15.2935 17.4152 15.2587 17.44 15.2228 17.4653Z" fill="#1E98FF" />
    <path d="M15.2228 17.4653C15.2587 17.4405 15.2945 17.4152 15.3358 17.3999C15.2935 17.4152 15.2587 17.44 15.2228 17.4653Z" stroke="#1E98FF" stroke-width="1.74706" />
    <path d="M37.3414 17.6262C37.3351 17.6152 37.324 17.609 37.3171 17.599C37.3689 17.6754 37.4052 17.7627 37.4105 17.8594C37.4227 18.0916 37.2781 18.3044 37.0566 18.3803L36.6429 18.5225L39.3931 23.2834L31.8521 25.8725L29.7444 22.8598C29.5782 22.6235 29.249 22.5633 29.01 22.7286C28.7705 22.8928 28.7114 23.2191 28.8771 23.4565L31.2126 26.795C31.3134 26.9382 31.4769 27.0198 31.6463 27.0198C31.7038 27.0198 31.7624 27.0109 31.8188 26.9911L36.0642 25.5331V24.7984C36.0642 24.5092 36.3006 24.2754 36.5918 24.2754C36.883 24.2754 37.1194 24.5091 37.1194 24.7984V25.1707L40.3397 24.0652C40.4879 24.014 40.6061 23.9005 40.6609 23.7541C40.7158 23.6087 40.7026 23.4461 40.6245 23.3107L37.3414 17.6262Z" fill="#00C533" />
    <path d="M37.3414 17.6262C37.3351 17.6152 37.324 17.609 37.3171 17.599C37.3689 17.6754 37.4052 17.7627 37.4105 17.8594C37.4227 18.0916 37.2781 18.3044 37.0566 18.3803L36.6429 18.5225L39.3931 23.2834L31.8521 25.8725L29.7444 22.8598C29.5782 22.6235 29.249 22.5633 29.01 22.7286C28.7705 22.8928 28.7114 23.2191 28.8771 23.4565L31.2126 26.795C31.3134 26.9382 31.4769 27.0198 31.6463 27.0198C31.7038 27.0198 31.7624 27.0109 31.8188 26.9911L36.0642 25.5331V24.7984C36.0642 24.5092 36.3006 24.2754 36.5918 24.2754C36.883 24.2754 37.1194 24.5091 37.1194 24.7984V25.1707L40.3397 24.0652C40.4879 24.014 40.6061 23.9005 40.6609 23.7541C40.7158 23.6087 40.7026 23.4461 40.6245 23.3107L37.3414 17.6262Z" fill="#1E98FF" />
    <path d="M37.3414 17.6262C37.3351 17.6152 37.324 17.609 37.3171 17.599C37.3689 17.6754 37.4052 17.7627 37.4105 17.8594C37.4227 18.0916 37.2781 18.3044 37.0566 18.3803L36.6429 18.5225L39.3931 23.2834L31.8521 25.8725L29.7444 22.8598C29.5782 22.6235 29.249 22.5633 29.01 22.7286C28.7705 22.8928 28.7114 23.2191 28.8771 23.4565L31.2126 26.795C31.3134 26.9382 31.4769 27.0198 31.6463 27.0198C31.7038 27.0198 31.7624 27.0109 31.8188 26.9911L36.0642 25.5331V24.7984C36.0642 24.5092 36.3006 24.2754 36.5918 24.2754C36.883 24.2754 37.1194 24.5091 37.1194 24.7984V25.1707L40.3397 24.0652C40.4879 24.014 40.6061 23.9005 40.6609 23.7541C40.7158 23.6087 40.7026 23.4461 40.6245 23.3107L37.3414 17.6262Z" stroke="#1E98FF" stroke-width="1.74706" />
    <path d="M37.1832 17.4602C37.2014 17.473 37.2164 17.4885 37.2324 17.5029C37.2158 17.4885 37.2009 17.4724 37.1832 17.4602Z" fill="#00C533" />
    <path d="M37.1832 17.4602C37.2014 17.473 37.2164 17.4885 37.2324 17.5029C37.2158 17.4885 37.2009 17.4724 37.1832 17.4602Z" fill="#1E98FF" />
    <path d="M37.1832 17.4602C37.2014 17.473 37.2164 17.4885 37.2324 17.5029C37.2158 17.4885 37.2009 17.4724 37.1832 17.4602Z" stroke="#1E98FF" stroke-width="1.74706" />
    <path d="M37.0137 17.3811C37.0298 17.3854 37.0437 17.3944 37.0592 17.3998C37.0431 17.3944 37.0298 17.3854 37.0137 17.3811Z" fill="#00C533" />
    <path d="M37.0137 17.3811C37.0298 17.3854 37.0437 17.3944 37.0592 17.3998C37.0431 17.3944 37.0298 17.3854 37.0137 17.3811Z" fill="#1E98FF" />
    <path d="M37.0137 17.3811C37.0298 17.3854 37.0437 17.3944 37.0592 17.3998C37.0431 17.3944 37.0298 17.3854 37.0137 17.3811Z" stroke="#1E98FF" stroke-width="1.74706" />
    <path d="M36.0645 32.5091L28.0999 35.2012V35.9318C28.0999 36.0934 28.0244 36.246 27.8957 36.3449C27.8493 36.3805 27.7975 36.4076 27.7432 36.4265L36.762 33.3777C36.9756 33.3055 37.1191 33.1063 37.1191 32.883V25.1711L36.064 25.5335V32.509H36.0645V32.5091Z" fill="#00C533" />
    <path d="M36.0645 32.5091L28.0999 35.2012V35.9318C28.0999 36.0934 28.0244 36.246 27.8957 36.3449C27.8493 36.3805 27.7975 36.4076 27.7432 36.4265L36.762 33.3777C36.9756 33.3055 37.1191 33.1063 37.1191 32.883V25.1711L36.064 25.5335V32.509H36.0645V32.5091Z" fill="#1E98FF" />
    <path d="M36.0645 32.5091L28.0999 35.2012V35.9318C28.0999 36.0934 28.0244 36.246 27.8957 36.3449C27.8493 36.3805 27.7975 36.4076 27.7432 36.4265L36.762 33.3777C36.9756 33.3055 37.1191 33.1063 37.1191 32.883V25.1711L36.064 25.5335V32.509H36.0645V32.5091Z" stroke="#1E98FF" stroke-width="1.74706" />
    <path d="M28.0999 35.9322V35.2017L27.4019 35.4375C27.126 35.5306 26.9788 35.8276 27.0727 36.1011C27.1476 36.3187 27.3523 36.4556 27.5718 36.4556C27.6283 36.4556 27.6858 36.4468 27.7423 36.4274H27.7428C27.7971 36.4091 27.8488 36.3819 27.8952 36.3458C28.0245 36.246 28.0999 36.0933 28.0999 35.9322Z" fill="#00C533" />
    <path d="M28.0999 35.9322V35.2017L27.4019 35.4375C27.126 35.5306 26.9788 35.8276 27.0727 36.1011C27.1476 36.3187 27.3523 36.4556 27.5718 36.4556C27.6283 36.4556 27.6858 36.4468 27.7423 36.4274H27.7428C27.7971 36.4091 27.8488 36.3819 27.8952 36.3458C28.0245 36.246 28.0999 36.0933 28.0999 35.9322Z" fill="#1E98FF" />
    <path d="M28.0999 35.9322V35.2017L27.4019 35.4375C27.126 35.5306 26.9788 35.8276 27.0727 36.1011C27.1476 36.3187 27.3523 36.4556 27.5718 36.4556C27.6283 36.4556 27.6858 36.4468 27.7423 36.4274H27.7428C27.7971 36.4091 27.8488 36.3819 27.8952 36.3458C28.0245 36.246 28.0999 36.0933 28.0999 35.9322Z" stroke="#1E98FF" stroke-width="1.74706" />
    <path d="M36.5919 24.2759C36.3007 24.2759 36.0643 24.5096 36.0643 24.7988V25.5336L37.1194 25.1712V24.7988C37.1195 24.5097 36.8831 24.2759 36.5919 24.2759Z" fill="#00C533" />
    <path d="M36.5919 24.2759C36.3007 24.2759 36.0643 24.5096 36.0643 24.7988V25.5336L37.1194 25.1712V24.7988C37.1195 24.5097 36.8831 24.2759 36.5919 24.2759Z" fill="#1E98FF" />
    <path d="M36.5919 24.2759C36.3007 24.2759 36.0643 24.5096 36.0643 24.7988V25.5336L37.1194 25.1712V24.7988C37.1195 24.5097 36.8831 24.2759 36.5919 24.2759Z" stroke="#1E98FF" stroke-width="1.74706" />
    <path d="M37.2317 17.5026C37.2634 17.5311 37.2924 17.5632 37.3172 17.6002C37.2924 17.5632 37.2644 17.5316 37.2317 17.5026Z" fill="#00C533" />
    <path d="M37.2317 17.5026C37.2634 17.5311 37.2924 17.5632 37.3172 17.6002C37.2924 17.5632 37.2644 17.5316 37.2317 17.5026Z" fill="#1E98FF" />
    <path d="M37.2317 17.5026C37.2634 17.5311 37.2924 17.5632 37.3172 17.6002C37.2924 17.5632 37.2644 17.5316 37.2317 17.5026Z" stroke="#1E98FF" stroke-width="1.74706" />
    <path d="M37.0585 17.3994C37.1023 17.4147 37.1445 17.4337 37.1829 17.4606C37.145 17.4342 37.1027 17.4152 37.0585 17.3994Z" fill="#00C533" />
    <path d="M37.0585 17.3994C37.1023 17.4147 37.1445 17.4337 37.1829 17.4606C37.145 17.4342 37.1027 17.4152 37.0585 17.3994Z" fill="#1E98FF" />
    <path d="M37.0585 17.3994C37.1023 17.4147 37.1445 17.4337 37.1829 17.4606C37.145 17.4342 37.1027 17.4152 37.0585 17.3994Z" stroke="#1E98FF" stroke-width="1.74706" />
    <path d="M16.0458 17.8863V18.2654L24.4373 15.5357L34.9886 17.9841L27.3991 20.5931C27.3938 20.5946 27.3901 20.5994 27.3849 20.6014C27.4434 20.5795 27.5057 20.5643 27.5717 20.5643C27.8629 20.5643 28.0993 20.798 28.0993 21.0873V21.459L36.6422 18.5227L36.4248 18.1468C36.2803 17.8963 36.3678 17.5763 36.6205 17.433C36.7445 17.3634 36.8848 17.3499 37.0131 17.3817C37.0094 17.3807 37.0067 17.3786 37.0031 17.3775L24.5333 14.4841C24.4389 14.4626 24.3402 14.4668 24.2484 14.4961L15.3536 17.3895C15.3467 17.3916 15.342 17.3973 15.3351 17.4C15.3926 17.3786 15.4533 17.3634 15.5182 17.3634C15.81 17.3634 16.0458 17.5971 16.0458 17.8863Z" fill="#00C533" />
    <path d="M16.0458 17.8863V18.2654L24.4373 15.5357L34.9886 17.9841L27.3991 20.5931C27.3938 20.5946 27.3901 20.5994 27.3849 20.6014C27.4434 20.5795 27.5057 20.5643 27.5717 20.5643C27.8629 20.5643 28.0993 20.798 28.0993 21.0873V21.459L36.6422 18.5227L36.4248 18.1468C36.2803 17.8963 36.3678 17.5763 36.6205 17.433C36.7445 17.3634 36.8848 17.3499 37.0131 17.3817C37.0094 17.3807 37.0067 17.3786 37.0031 17.3775L24.5333 14.4841C24.4389 14.4626 24.3402 14.4668 24.2484 14.4961L15.3536 17.3895C15.3467 17.3916 15.342 17.3973 15.3351 17.4C15.3926 17.3786 15.4533 17.3634 15.5182 17.3634C15.81 17.3634 16.0458 17.5971 16.0458 17.8863Z" fill="#1E98FF" />
    <path d="M16.0458 17.8863V18.2654L24.4373 15.5357L34.9886 17.9841L27.3991 20.5931C27.3938 20.5946 27.3901 20.5994 27.3849 20.6014C27.4434 20.5795 27.5057 20.5643 27.5717 20.5643C27.8629 20.5643 28.0993 20.798 28.0993 21.0873V21.459L36.6422 18.5227L36.4248 18.1468C36.2803 17.8963 36.3678 17.5763 36.6205 17.433C36.7445 17.3634 36.8848 17.3499 37.0131 17.3817C37.0094 17.3807 37.0067 17.3786 37.0031 17.3775L24.5333 14.4841C24.4389 14.4626 24.3402 14.4668 24.2484 14.4961L15.3536 17.3895C15.3467 17.3916 15.342 17.3973 15.3351 17.4C15.3926 17.3786 15.4533 17.3634 15.5182 17.3634C15.81 17.3634 16.0458 17.5971 16.0458 17.8863Z" stroke="#1E98FF" stroke-width="1.74706" />
    <path d="M27.2105 20.7105C27.2318 20.6901 27.2596 20.6773 27.2842 20.6608C27.2596 20.6773 27.2318 20.6901 27.2105 20.7105Z" fill="#00C533" />
    <path d="M27.2105 20.7105C27.2318 20.6901 27.2596 20.6773 27.2842 20.6608C27.2596 20.6773 27.2318 20.6901 27.2105 20.7105Z" fill="#1E98FF" />
    <path d="M27.2105 20.7105C27.2318 20.6901 27.2596 20.6773 27.2842 20.6608C27.2596 20.6773 27.2318 20.6901 27.2105 20.7105Z" stroke="#1E98FF" stroke-width="1.74706" />
    <path d="M27.0477 21.0711C27.0487 21.031 27.0609 20.9946 27.0709 20.9572C27.0609 20.9952 27.0492 21.0315 27.0477 21.0711Z" fill="#00C533" />
    <path d="M27.0477 21.0711C27.0487 21.031 27.0609 20.9946 27.0709 20.9572C27.0609 20.9952 27.0492 21.0315 27.0477 21.0711Z" fill="#1E98FF" />
    <path d="M27.0477 21.0711C27.0487 21.031 27.0609 20.9946 27.0709 20.9572C27.0609 20.9952 27.0492 21.0315 27.0477 21.0711Z" stroke="#1E98FF" stroke-width="1.74706" />
    <path d="M27.1497 20.7893C27.1302 20.8168 27.1076 20.8416 27.0938 20.8721C27.1081 20.8416 27.1307 20.8168 27.1497 20.7893Z" fill="#00C533" />
    <path d="M27.1497 20.7893C27.1302 20.8168 27.1076 20.8416 27.0938 20.8721C27.1081 20.8416 27.1307 20.8168 27.1497 20.7893Z" fill="#1E98FF" />
    <path d="M27.1497 20.7893C27.1302 20.8168 27.1076 20.8416 27.0938 20.8721C27.1081 20.8416 27.1307 20.8168 27.1497 20.7893Z" stroke="#1E98FF" stroke-width="1.74706" />
    <path d="M16.046 18.265V17.8859C16.046 17.5967 15.8096 17.3629 15.5184 17.3629C15.4535 17.3629 15.3928 17.3781 15.3353 17.3995C15.2942 17.4147 15.2583 17.4398 15.2224 17.4644C15.0858 17.559 14.9908 17.7081 14.9908 17.8859V19.0599L15.7885 18.3487L16.046 18.265Z" fill="#00C533" />
    <path d="M16.046 18.265V17.8859C16.046 17.5967 15.8096 17.3629 15.5184 17.3629C15.4535 17.3629 15.3928 17.3781 15.3353 17.3995C15.2942 17.4147 15.2583 17.4398 15.2224 17.4644C15.0858 17.559 14.9908 17.7081 14.9908 17.8859V19.0599L15.7885 18.3487L16.046 18.265Z" fill="#1E98FF" />
    <path d="M16.046 18.265V17.8859C16.046 17.5967 15.8096 17.3629 15.5184 17.3629C15.4535 17.3629 15.3928 17.3781 15.3353 17.3995C15.2942 17.4147 15.2583 17.4398 15.2224 17.4644C15.0858 17.559 14.9908 17.7081 14.9908 17.8859V19.0599L15.7885 18.3487L16.046 18.265Z" stroke="#1E98FF" stroke-width="1.74706" />
    <path d="M27.5721 20.5638C27.5057 20.5638 27.4434 20.579 27.3853 20.601C27.3474 20.6156 27.3157 20.6386 27.2835 20.6606C27.2592 20.6768 27.2324 20.6894 27.2107 20.7092C27.1859 20.7328 27.1695 20.7621 27.15 20.7893C27.1305 20.8165 27.1083 20.8411 27.094 20.8714C27.0819 20.8986 27.0787 20.9284 27.0713 20.9571C27.0613 20.9942 27.0497 21.0303 27.0481 21.0701C27.046 21.1323 27.0518 21.1956 27.0739 21.2578C27.1694 21.5308 27.4691 21.6757 27.745 21.5804L28.0995 21.4586V21.0868C28.0997 20.7976 27.8633 20.5638 27.5721 20.5638Z" fill="#00C533" />
    <path d="M27.5721 20.5638C27.5057 20.5638 27.4434 20.579 27.3853 20.601C27.3474 20.6156 27.3157 20.6386 27.2835 20.6606C27.2592 20.6768 27.2324 20.6894 27.2107 20.7092C27.1859 20.7328 27.1695 20.7621 27.15 20.7893C27.1305 20.8165 27.1083 20.8411 27.094 20.8714C27.0819 20.8986 27.0787 20.9284 27.0713 20.9571C27.0613 20.9942 27.0497 21.0303 27.0481 21.0701C27.046 21.1323 27.0518 21.1956 27.0739 21.2578C27.1694 21.5308 27.4691 21.6757 27.745 21.5804L28.0995 21.4586V21.0868C28.0997 20.7976 27.8633 20.5638 27.5721 20.5638Z" fill="#1E98FF" />
    <path d="M27.5721 20.5638C27.5057 20.5638 27.4434 20.579 27.3853 20.601C27.3474 20.6156 27.3157 20.6386 27.2835 20.6606C27.2592 20.6768 27.2324 20.6894 27.2107 20.7092C27.1859 20.7328 27.1695 20.7621 27.15 20.7893C27.1305 20.8165 27.1083 20.8411 27.094 20.8714C27.0819 20.8986 27.0787 20.9284 27.0713 20.9571C27.0613 20.9942 27.0497 21.0303 27.0481 21.0701C27.046 21.1323 27.0518 21.1956 27.0739 21.2578C27.1694 21.5308 27.4691 21.6757 27.745 21.5804L28.0995 21.4586V21.0868C28.0997 20.7976 27.8633 20.5638 27.5721 20.5638Z" stroke="#1E98FF" stroke-width="1.74706" />
    <path d="M36.6213 17.4322C36.3686 17.5755 36.281 17.8956 36.4256 18.1461L36.6429 18.522L37.0565 18.3798C37.2781 18.3034 37.4227 18.0911 37.4105 17.859C37.4053 17.7622 37.3689 17.6754 37.3171 17.5985C37.2923 17.5619 37.2638 17.53 37.2317 17.5018C37.2158 17.4871 37.2005 17.472 37.1831 17.46C37.1446 17.4338 37.1024 17.4145 37.0586 17.3993C37.0433 17.3941 37.0301 17.3852 37.0138 17.381C36.8856 17.3485 36.7453 17.3621 36.6213 17.4322Z" fill="#00C533" />
    <path d="M36.6213 17.4322C36.3686 17.5755 36.281 17.8956 36.4256 18.1461L36.6429 18.522L37.0565 18.3798C37.2781 18.3034 37.4227 18.0911 37.4105 17.859C37.4053 17.7622 37.3689 17.6754 37.3171 17.5985C37.2923 17.5619 37.2638 17.53 37.2317 17.5018C37.2158 17.4871 37.2005 17.472 37.1831 17.46C37.1446 17.4338 37.1024 17.4145 37.0586 17.3993C37.0433 17.3941 37.0301 17.3852 37.0138 17.381C36.8856 17.3485 36.7453 17.3621 36.6213 17.4322Z" fill="#1E98FF" />
    <path d="M36.6213 17.4322C36.3686 17.5755 36.281 17.8956 36.4256 18.1461L36.6429 18.522L37.0565 18.3798C37.2781 18.3034 37.4227 18.0911 37.4105 17.859C37.4053 17.7622 37.3689 17.6754 37.3171 17.5985C37.2923 17.5619 37.2638 17.53 37.2317 17.5018C37.2158 17.4871 37.2005 17.472 37.1831 17.46C37.1446 17.4338 37.1024 17.4145 37.0586 17.3993C37.0433 17.3941 37.0301 17.3852 37.0138 17.381C36.8856 17.3485 36.7453 17.3621 36.6213 17.4322Z" stroke="#1E98FF" stroke-width="1.74706" />
    <path d="M15.3505 17.5264C15.3452 17.5373 15.1516 17.4652 15.0584 17.655L12.0927 22.787C12.0361 22.9326 12.0477 23.0953 12.124 23.2309C12.2004 23.3674 12.3345 23.462 12.4888 23.4906L24.6346 26.4982C24.6934 26.5094 24.7526 26.5095 24.8095 26.5009C24.977 26.4756 25.1262 26.3706 25.2041 26.214L28.0776 21.3533C28.2054 21.0939 28.0975 20.78 27.8358 20.6534C27.5745 20.5256 27.2581 20.6342 27.1297 20.8926L24.4321 25.3973L13.306 22.5765L15.8242 18.5625L16.0968 18.1375C15.8663 18.0956 15.1465 18.2402 15.1233 18.0089C15.1139 17.9124 15.3109 17.6096 15.3505 17.5264Z" fill="#00C533" />
    <path d="M15.3505 17.5264C15.3452 17.5373 15.1516 17.4652 15.0584 17.655L12.0927 22.787C12.0361 22.9326 12.0477 23.0953 12.124 23.2309C12.2004 23.3674 12.3345 23.462 12.4888 23.4906L24.6346 26.4982C24.6934 26.5094 24.7526 26.5095 24.8095 26.5009C24.977 26.4756 25.1262 26.3706 25.2041 26.214L28.0776 21.3533C28.2054 21.0939 28.0975 20.78 27.8358 20.6534C27.5745 20.5256 27.2581 20.6342 27.1297 20.8926L24.4321 25.3973L13.306 22.5765L15.8242 18.5625L16.0968 18.1375C15.8663 18.0956 15.1465 18.2402 15.1233 18.0089C15.1139 17.9124 15.3109 17.6096 15.3505 17.5264Z" fill="#1E98FF" />
    <path d="M15.3505 17.5264C15.3452 17.5373 15.1516 17.4652 15.0584 17.655L12.0927 22.787C12.0361 22.9326 12.0477 23.0953 12.124 23.2309C12.2004 23.3674 12.3345 23.462 12.4888 23.4906L24.6346 26.4982C24.6934 26.5094 24.7526 26.5095 24.8095 26.5009C24.977 26.4756 25.1262 26.3706 25.2041 26.214L28.0776 21.3533C28.2054 21.0939 28.0975 20.78 27.8358 20.6534C27.5745 20.5256 27.2581 20.6342 27.1297 20.8926L24.4321 25.3973L13.306 22.5765L15.8242 18.5625L16.0968 18.1375C15.8663 18.0956 15.1465 18.2402 15.1233 18.0089C15.1139 17.9124 15.3109 17.6096 15.3505 17.5264Z" stroke="#1E98FF" stroke-width="1.74706" />
</svg>
